<svg width="780" height="680" viewBox="0 0 780 680" fill="none" xmlns="http://www.w3.org/2000/svg">
	<g id="backlayer">
		<rect width="780" height="680" fill="#F6F6F6" />
		<path d="M211.556 261.89C202.319 259.408 199.416 255.994 192.164 254.631C175.5 251.5 156.105 267.68 148 278.803C146.155 281.339 153.348 287.06 155.508 285.091C170 278.803 172.084 271.72 183 268C192.127 264.89 195.319 271.006 208.173 269.291C214.114 268.499 213.55 262.425 211.556 261.89Z" fill="white" stroke="#222222" stroke-width="2" stroke-linecap="round" />
		<path d="M219.364 297.261C216.609 294.134 212.643 293.952 209.136 293.643C201.869 293.002 199.31 295.865 190 299C185.191 287.778 172.965 281.698 163.51 277.361C161.169 276.288 158.846 275.411 156.618 274.723C147 271.752 133.249 298.884 130.178 307.584C128.499 312.326 130.898 332.916 131.745 345.282C132.196 351.789 122.103 374.335 119.015 384.54C118.129 387.477 155.914 410.973 156.294 407.972C158.154 393.501 164.64 377.471 166.5 363C172.556 360.15 176.844 356.328 181 351C183.755 347.462 185.924 343.543 187.428 339.316C189.289 334.091 189.906 328.47 192.036 323.34C196.049 313.666 203.476 307.552 212.398 305.787C216.205 305.035 224.304 302.866 219.364 297.261Z" fill="white" />
		<path d="M190.5 299C199.81 295.865 201.869 293.002 209.136 293.643C212.643 293.952 216.609 294.134 219.364 297.261C224.304 302.866 216.205 305.035 212.398 305.787C203.476 307.552 197.049 313.166 193.036 322.84C190.906 327.97 190.289 333.591 188.428 338.816C186.924 343.043 184.755 346.962 182 350.5C177.844 355.828 172.508 360.047 166.452 362.897C164.592 377.369 158.154 393.501 156.294 407.972C155.914 410.973 118.129 387.477 119.015 384.54C122.103 374.335 132.196 351.789 131.745 345.282C130.898 332.916 128.499 312.326 130.178 307.584C133.249 298.884 142 283.803 155.5 270.303" stroke="#222222" stroke-width="2" stroke-linecap="round" />
		<path d="M187.709 313.868C192.192 308.853 192.482 302.283 188.298 296.201C181.76 286.694 173.017 281.003 163.147 277.717" stroke="#222222" stroke-width="2" stroke-miterlimit="10" stroke-linecap="round" />
		<path d="M158.386 290.911C166.696 293.366 179.041 299.296 185.948 311.546C189.689 318.179 186.19 327.614 179.566 326.827" stroke="#222222" stroke-width="2" stroke-miterlimit="10" stroke-linecap="round" />
		<path d="M148 318.7C153.749 320.946 161.06 324.065 166.092 327.793" stroke="#222222" stroke-width="2" stroke-miterlimit="10" stroke-linecap="round" />
		<path d="M151.084 304.28C157.415 307.229 177.859 315.793 179.062 326.825C179.285 328.871 177.435 331.826 175.83 333.164C171.169 337.048 163.563 335.168 160.529 333.849C155.833 331.81 148.631 326.318 156.186 323.034" stroke="#222222" stroke-width="2" stroke-miterlimit="10" stroke-linecap="round" />
		<path d="M522.83 394.599C539.859 422.995 563.553 473.479 581.76 529.931C590.587 557.29 614.273 627.445 560.299 622.862C539.392 621.088 504.187 574.397 468.152 478.03L522.83 394.599Z" fill="#B750D1" />
		<path d="M407.062 323.557C352.837 310.518 319.462 256.053 332.509 201.896C345.556 147.739 400.099 114.406 454.324 127.437C466.358 130.333 477.361 135.27 487.066 141.781L518.143 95.6311C503.092 85.5197 486.028 77.861 467.356 73.3749C383.241 53.1679 298.635 104.88 278.386 188.889C258.138 272.897 309.916 357.396 394.031 377.619C478.145 397.842 562.752 346.13 583 262.121L528.877 249.114C515.83 303.263 461.288 336.596 407.062 323.557Z" fill="white" />
		<path d="M535.977 88L505 134.298C538.899 157.221 556.8 199.685 546.677 241.951L600.624 255C616.338 189.422 588.567 123.559 535.977 88Z" fill="#B750D1" />
		<path d="M336.907 373.23C324.13 375.827 311.717 379.919 299.756 385.105C287.588 390.377 275.919 396.742 264.615 403.661C252.708 410.944 241.174 418.821 229.751 426.832C217.52 435.406 205.392 444.138 193.113 452.648C180.043 461.704 166.791 470.507 153.191 478.748C152.051 479.437 150.903 480.118 149.755 480.807C152.082 460.509 154.315 440.203 156.603 419.905C157.283 413.865 157.972 407.817 158.669 401.777C158.732 401.254 158.447 400.938 158.075 400.819C145.931 393.947 132.911 386.68 120.768 379.809C120.578 379.698 120.388 379.674 120.213 379.682C119.873 379.659 119.525 379.793 119.311 380.197C105.141 406.559 95.2186 435.144 87.9434 464.166C84.3572 478.471 81.634 492.982 79.8211 507.619C78.1508 521.117 76.2112 537.306 85.3389 548.769C91.5375 556.551 102.684 559.345 112.12 560.343C123.314 561.522 134.73 560.319 145.741 558.174C157.347 555.918 168.754 552.466 179.711 548.025C189.076 544.225 197.919 539.372 206.84 534.646C216.95 529.295 227.035 523.912 237.065 518.418C245.298 513.905 281.777 493.172 281.777 493.172C282.941 492.436 303.358 678.622 303.358 680H503.263C484.019 567.951 538.389 436.197 534.351 421.734C513.579 347.438 337.565 373.095 336.907 373.23Z" fill="#B750D1" />
		<path d="M509.887 339.762C507.607 335.629 504.219 332.289 500.166 329.914C499.968 328.758 499.714 327.626 499.398 326.51C498.107 322.053 495.74 318.126 492.922 314.485C489.93 310.621 486.739 306.924 483.779 303.037C480.762 299.079 477.849 294.994 475.617 290.529C473.281 285.843 471.896 280.705 470.875 275.583C468.777 265.118 468.508 254.407 467.962 243.783C467.692 238.471 467.36 233.159 466.719 227.879C466.165 223.327 465.492 218.735 464.114 214.358C461.446 205.887 457.013 197.828 451.709 190.727C446.698 184.006 440.579 178.575 433.296 174.403C426.044 170.239 418.017 167.429 409.784 166.028C394.473 163.415 378.158 165.521 364.438 172.962C364.312 172.844 364.145 172.749 363.924 172.717C354.796 171.332 345.423 171.807 336.691 174.957C329.487 177.554 322.956 181.797 317.541 187.196C312.997 191.724 309.118 197.084 306.458 202.926C302.943 210.661 302.009 219.511 302.785 227.91C303.648 237.196 306.601 246.791 312.95 253.821C313.441 254.359 314.082 254.233 314.478 253.837C314.509 253.813 314.533 253.773 314.557 253.742C314.581 253.71 314.612 253.678 314.636 253.647C314.707 253.56 314.755 253.457 314.794 253.338C314.818 253.267 314.834 253.188 314.85 253.108C314.85 253.077 314.866 253.061 314.866 253.029C315.159 242.5 317.288 232.13 319.679 221.902C321.832 213.59 326.186 202.53 335.504 200.258C338.045 203.164 341.156 205.57 344.307 207.771C348.629 210.787 353.213 213.431 357.899 215.838C367.914 220.992 378.522 225.29 389.438 228.085C390.974 228.48 392.526 228.837 394.085 229.161C394.085 229.225 394.062 229.264 394.07 229.335C395.217 239.318 397.244 249.586 401.479 258.753C402.018 259.917 403.593 259.133 403.498 258.033C403.593 257.93 403.68 257.811 403.736 257.668C405.287 253.995 408.478 250.243 412.412 249.095C415.761 248.121 419.972 249.214 422.038 252.127C423.764 254.565 424.105 257.763 423.994 260.669C423.938 262.07 423.827 263.534 423.44 264.888C422.878 266.859 421.627 268.585 420.249 270.065C417.193 273.359 413.085 276.106 408.81 277.515C408.09 277.752 407.915 278.473 408.121 279.027C408.05 289.675 409.372 300.37 410.916 310.883C412.491 321.617 414.082 332.653 418.698 342.564C423.732 353.386 431.728 362.387 442.526 367.659C452.905 372.734 464.336 373.787 475.728 373.446C480.628 373.304 485.56 372.86 490.46 373.153C496.002 373.486 500.878 376.011 505.391 379.122C505.739 379.669 506.507 379.954 507.077 379.336C508.739 377.539 509.792 375.204 510.671 372.948C511.922 369.741 512.753 366.353 513.236 362.949C514.344 355.159 513.758 346.792 509.887 339.762Z" fill="#222222" />
		<path d="M370.328 348.47C369.149 340.72 366.196 333.239 361.66 326.842C361.462 326.391 361.011 326.067 360.409 326.241C355.588 327.594 350.664 328.212 345.661 327.903C345.13 327.871 344.798 328.164 344.663 328.544C344.647 328.592 344.647 328.647 344.639 328.695C344.623 328.79 344.6 328.877 344.608 328.98C344.608 328.988 344.608 328.996 344.608 329.004C345.692 341.686 346.056 354.779 340.222 366.472C336.77 373.383 331.609 379.233 325.751 384.213C322.679 386.825 319.362 389.097 316.568 392.026C314.367 394.338 312.443 396.942 311.089 399.84C307.844 406.798 308.501 414.454 309.862 421.832C314.256 445.605 347.568 456.252 347.663 454.899C348.154 448.059 332.084 422.79 350.442 402.5C354.701 397.797 357.67 392.098 361.256 386.873C364.969 381.466 367.874 375.663 369.449 369.267C371.128 362.474 371.381 355.381 370.328 348.47Z" fill="#222222" />
		<path d="M445.645 366.528C438.497 363.353 433.019 358.991 428.387 353.181C422.965 346.372 419.189 338.203 417.217 329.748C415.515 322.441 414.336 314.984 413.315 307.55C412.214 299.586 411.335 291.559 411.058 283.524C411.011 282.162 410.995 280.793 410.995 279.423C415.175 277.919 419.125 275.315 422.228 272.18C423.883 270.509 425.34 268.586 426.187 266.385C426.828 264.714 427.01 262.838 427.105 261.057C427.279 257.645 426.844 253.893 424.865 251.019C422.482 247.567 418.009 246.047 413.932 246.697C409.269 247.441 405.525 251.233 403.332 255.349C398.471 246.522 396.777 227.784 396.825 227.349C389.779 226.193 383.636 224 377.073 221.53C366.932 217.722 356.981 212.973 347.949 206.956C344.204 204.462 340.483 201.7 337.578 198.224C337.23 197.805 336.794 197.773 336.43 197.955C325.885 200.021 320.843 212.07 318.444 221.309C312.507 246.784 312.617 274.507 320.55 299.563C323.146 307.764 326.622 315.213 332.322 321.792C334.158 323.906 336.335 325.877 338.94 326.993C342.328 328.442 346.429 328.181 350.007 327.832C353.427 327.5 356.823 326.898 360.172 326.098C368.175 337.601 370.914 353.442 367.843 367.098C366.37 373.653 363.496 379.566 359.728 385.1C356.19 390.293 352.247 395.201 348.97 400.568C345.051 406.997 342.304 414.003 341.766 421.563C341.679 422.79 339.858 440.451 348.883 446.563C360.504 454.44 354.693 437.253 368.468 421.563C377.509 411.271 388.299 404.297 398.091 396.373C407.045 389.129 416.687 382.756 426.883 377.397C433.027 374.167 439.352 371.301 445.788 368.721C445.788 368.721 447.331 367.905 447.925 367.628C447.094 367.319 446.168 366.757 445.645 366.528Z" fill="white" />
		<path d="M409.197 264.896C409.459 263.408 409.657 261.888 410.203 260.471C410.211 260.447 410.25 260.352 410.266 260.305C410.29 260.257 410.329 260.162 410.337 260.139C410.424 259.957 410.519 259.774 410.614 259.6C410.717 259.418 410.82 259.244 410.939 259.078C410.994 258.999 411.05 258.92 411.105 258.84C411.113 258.832 411.113 258.832 411.113 258.825C411.145 258.785 411.169 258.753 411.2 258.714C411.834 257.962 412.356 257.542 413.156 257.083C414.351 256.394 415.649 255.998 417.011 255.698C417.597 255.571 417.945 254.882 417.787 254.328C417.621 253.718 417.003 253.418 416.417 253.552C414.034 254.075 411.588 255.009 409.894 256.838C408.651 258.175 407.931 259.862 407.527 261.627C407.329 262.514 407.195 263.408 407.036 264.303C406.933 264.896 407.195 265.506 407.812 265.672C408.366 265.823 409.095 265.49 409.197 264.896Z" fill="#222222" />
		<g filter="url(#filter0_d_4171_33259)">
			<path d="M671.525 273.114L641.435 246.404L657.647 228.132L576.694 203.211L611.051 280.642L627.264 262.363L657.362 289.073L671.525 273.114Z" fill="white" />
		</g>
		<path d="M477.15 482.011C466.905 480.254 455.826 444.915 451.567 427.466L518.02 417.181C519.107 436.514 520.877 475.244 519.254 475.495C517.224 475.809 489.956 484.208 477.15 482.011Z" fill="white" stroke="#222222" stroke-width="2" />
		<path d="M317.098 221.601C306.601 274.792 325.798 324.562 341.219 327.602C351.265 329.581 373.028 323.557 382.694 317.05" stroke="#222222" stroke-width="2" stroke-miterlimit="10" stroke-linecap="round" />
		<path d="M533.51 421.571C530.723 412 526.504 399.792 520.891 391.488C516.212 384.553 510.117 378.576 502.691 374.634C499.501 372.94 496.31 371.665 492.7 371.301C488.798 370.913 484.847 371.167 480.945 371.325C469.197 371.816 457.433 371.61 446.453 366.9C446.239 366.575 445.859 366.401 445.376 366.599C434.071 371.135 423.107 376.51 412.839 383.089C402.857 389.485 393.602 396.935 384.942 405.009C379.487 410.084 373.574 416.148 368.468 421.571H533.51Z" fill="#B750D1" />
		<path d="M479.642 443.959C477.731 448.126 473.522 453.401 469.171 456.006C464.841 458.599 459.043 458.112 454.688 455.487C450.842 453.17 448.964 449.271 446.58 443.706C441.385 431.572 435.084 420.124 437.747 417.983C440.68 414.116 449.9 417.192 453.569 422.271C458.392 428.947 465.57 444.217 465.57 444.217" fill="white" />
	</g>
	<use href="#backlayer" filter="url(#blur)" clip-path="url(#glassmask)" />
    <path id="glass" filter="url(#filter1_bd_4171_33259)" d="M602 422H285C271.745 422 261 432.745 261 446V627C261 640.255 271.745 651 285 651H602C615.255 651 626 640.255 626 627V446C626 432.745 615.255 422 602 422Z" fill="url(#paint0_linear_4171_33259)"/>
	<g id="frontlayer">
		<path d="M208.873 283.096C240.356 285.922 274.864 314.287 284.031 341.353C293.191 368.412 285.71 398.043 291.116 426.099C296.523 454.155 316.196 482.519 339.652 498.827C369.624 519.671 409.792 514.13 445.78 520.281C482.765 526.598 517.257 546.563 541.165 575.474" stroke="#222222" stroke-width="2" stroke-miterlimit="10" stroke-linecap="round" />
		<path d="M416.726 254.628C409.071 256.275 408.802 260.772 408.129 264.595" stroke="#222222" stroke-width="2" stroke-miterlimit="10" stroke-linecap="round" />
		<path d="M615 457H273" stroke="#222222" stroke-width="2" stroke-miterlimit="10" stroke-linecap="round" />
		<path d="M605.5 446C607.985 446 610 443.985 610 441.5C610 439.015 607.985 437 605.5 437C603.015 437 601 439.015 601 441.5C601 443.985 603.015 446 605.5 446Z" fill="#222222" />
		<path d="M587.5 446C589.985 446 592 443.985 592 441.5C592 439.015 589.985 437 587.5 437C585.015 437 583 439.015 583 441.5C583 443.985 585.015 446 587.5 446Z" fill="#222222" />
		<path d="M569.5 446C571.985 446 574 443.985 574 441.5C574 439.015 571.985 437 569.5 437C567.015 437 565 439.015 565 441.5C565 443.985 567.015 446 569.5 446Z" fill="#222222" />
		<path d="M325.276 251.146C325.276 252.863 325.276 254.589 325.276 256.307" stroke="#222222" stroke-width="2" stroke-miterlimit="10" stroke-linecap="round" />
		<path d="M112.466 396.911C125.908 407.637 139.351 418.364 152.793 429.099" stroke="#222222" stroke-width="2" stroke-miterlimit="10" stroke-linecap="round" />
		<path d="M123.351 391.124C123.2 391.733 123.05 392.351 122.9 392.96" stroke="#222222" stroke-width="2" stroke-miterlimit="10" stroke-linecap="round" />
		<path d="M339.224 248.454L338.282 268.435C327.88 266.812 326.463 270.976 337.965 283.484" stroke="#222222" stroke-width="2" stroke-miterlimit="10" stroke-linecap="round" stroke-linejoin="round" />
		<path d="M362.823 258.025C364.684 258.025 366.188 255.888 366.188 253.243C366.188 250.599 364.684 248.462 362.823 248.462C360.963 248.462 359.459 250.599 359.459 253.243C359.459 255.88 360.963 258.025 362.823 258.025Z" fill="#222222" />
		<path d="M208.872 297.171C216.646 297.171 222.948 290.87 222.948 283.096C222.948 275.322 216.646 269.021 208.872 269.021C201.099 269.021 194.797 275.322 194.797 283.096C194.797 290.87 201.099 297.171 208.872 297.171Z" fill="#B750D1" />
		<path d="M324.286 258.927C326.147 258.927 327.651 256.79 327.651 254.146C327.651 251.502 326.147 249.364 324.286 249.364C322.426 249.364 320.922 251.502 320.922 254.146C320.922 256.79 322.426 258.927 324.286 258.927Z" fill="#222222" />
		<path d="M360.694 248.62C362.562 247.955 364.676 248.327 366.457 249.19C368.238 250.061 369.758 251.375 371.255 252.681" stroke="#222222" stroke-width="2" stroke-miterlimit="10" stroke-linecap="round" stroke-linejoin="round" />
		<path d="M321.721 249.966C323.59 249.301 325.703 249.673 327.485 250.536C329.266 251.407 330.786 252.721 332.282 254.027" stroke="#222222" stroke-width="2" stroke-miterlimit="10" stroke-linecap="round" stroke-linejoin="round" />
		<path d="M354.258 235.115C354.258 235.962 356.91 236.856 359.213 237.521C364.795 239.144 370.384 240.775 375.973 242.398C377.215 242.762 378.53 243.134 379.891 243.276C387.871 244.084 379.385 239.817 376.891 238.764C372.933 237.094 368.238 235.566 362.998 234.655C359.72 234.093 354.258 233.737 354.258 235.115Z" fill="#222222" />
		<path d="M333.596 237.529C332.528 237.877 331.403 237.996 330.335 238.099C325.822 238.526 321.31 238.954 316.798 239.389C314.043 238.083 314.177 236.753 317.977 235.431C322.157 234.473 326.171 234.252 329.686 234.41C331.934 234.497 339.866 235.471 333.596 237.529Z" fill="#222222" />
		<path d="M344.236 294.852C352.2 295.248 360.164 291.258 368.128 282.89" stroke="#222222" stroke-width="2" stroke-miterlimit="10" stroke-linecap="round" stroke-linejoin="round" />
		<path d="M351 520C359.284 520 366 513.284 366 505C366 496.716 359.284 490 351 490C342.716 490 336 496.716 336 505C336 513.284 342.716 520 351 520Z" fill="white" stroke="#222222" stroke-width="2" stroke-miterlimit="10" stroke-linecap="round" />
		<path d="M489.102 416.787C486.643 413.085 481.5 407.5 475 407.5C472.662 407.692 469.287 409.233 467.951 412.148C460 429.5 451.525 446.681 457.5 448.5C469 452 477.294 421.978 479.832 419.365" fill="white" />
		<path d="M500 419.561C498.976 417.725 496.841 414.724 495.447 413.183C494.053 411.641 492.241 410.404 490.217 410.125C486.735 409.649 482.348 410.429 480.772 414.257C474.016 430.666 469.445 444.811 471.493 446.205C473.486 447.558 477.44 447.033 479.488 445.762C489.439 437.915 487.946 426.006 495.447 419.561" fill="white" />
		<path d="M514 421.658C512.5 418.658 509.746 415.483 506.5 413.686C503.27 411.897 500.089 411.66 496.97 413.686C494.215 415.475 492.938 418.372 491.332 422.5C487.832 431.5 483.507 440.026 485.507 441.526C487.747 444.28 494.412 441.804 496.97 438C500.332 433 505.204 421.658 505.204 421.658" fill="white" />
		<path d="M472.846 416.87C470.782 413.517 465.376 408.624 461.036 409.03C459.028 409.155 456.224 409.03 454.5 412C445.5 427.5 439.609 443.295 444.5 445C456 449.009 463.995 419.774 466.206 417.491" fill="white" />
		<path d="M453.5 413.5C444.5 429 439.222 443.486 445 445.5C450.778 447.515 453.677 440.636 457.898 433.5" stroke="#222222" stroke-width="2" stroke-miterlimit="10" stroke-linecap="round" />
		<path d="M466.5 414.5C458.549 431.852 451.5 446 457.5 449C463.5 452 469.61 441.633 473.561 433.5" stroke="#222222" stroke-width="2" stroke-miterlimit="10" stroke-linecap="round" />
		<path d="M480.5 415.5C474 433 469 443 471.493 446.205C476.171 452.218 484 443 486.152 436" stroke="#222222" stroke-width="2" stroke-miterlimit="10" stroke-linecap="round" />
		<path d="M493.5 417C489 428 482.5 440 488 442.5C490 443.409 492.936 444 496.97 438C500.332 433 505.204 421.658 505.204 421.658" stroke="#222222" stroke-width="2" stroke-miterlimit="10" stroke-linecap="round" />
		<path d="M546 598C554.284 598 561 591.284 561 583C561 574.716 554.284 568 546 568C537.716 568 531 574.716 531 583C531 591.284 537.716 598 546 598Z" fill="white" stroke="#222222" stroke-width="2" stroke-miterlimit="10" stroke-linecap="round" />
		<path d="M383.238 317C381.043 324.188 367.214 334.302 360.574 338.461L357.5 327C362.647 326.256 377.399 320.875 383.238 317Z" fill="#222222" />
	</g>
	<defs>
        <clipPath id="glassmask">
            <use href="#glass" />
		</clipPath>
		<filter id="blur">
			<feGaussianBlur in="SourceGraphic" stdDeviation="12" result="blurred" />
		</filter>
		<filter id="filter0_d_4171_33259" x="528.694" y="164.865" width="190.831" height="181.862" filterUnits="userSpaceOnUse" color-interpolation-filters="sRGB">
			<feFlood flood-opacity="0" result="BackgroundImageFix" />
			<feColorMatrix in="SourceAlpha" type="matrix" values="0 0 0 0 0 0 0 0 0 0 0 0 0 0 0 0 0 0 127 0" result="hardAlpha" />
			<feOffset dy="9.65373" />
			<feGaussianBlur stdDeviation="24" />
			<feColorMatrix type="matrix" values="0 0 0 0 0 0 0 0 0 0 0 0 0 0 0 0 0 0 0.1 0" />
			<feBlend mode="normal" in2="BackgroundImageFix" result="effect1_dropShadow_4171_33259" />
			<feBlend mode="normal" in="SourceGraphic" in2="effect1_dropShadow_4171_33259" result="shape" />
		</filter>
		<filter id="filter1_bd_4171_33259" x="213" y="390" width="461" height="325" filterUnits="userSpaceOnUse" color-interpolation-filters="sRGB">
			<feColorMatrix in="SourceAlpha" type="matrix" values="0 0 0 0 0 0 0 0 0 0 0 0 0 0 0 0 0 0 127 0" result="hardAlpha" />
			<feOffset dy="16" />
			<feGaussianBlur stdDeviation="24" />
			<feColorMatrix type="matrix" values="0 0 0 0 0 0 0 0 0 0 0 0 0 0 0 0 0 0 0.1 0" result="effect1_dropShadow_4171_33259" />
			<feBlend mode="normal" in="SourceGraphic" in2="effect1_dropShadow_4171_33259" result="shape" />
		</filter>
		<linearGradient id="paint0_linear_4171_33259" x1="261" y1="422" x2="236.177" y2="595.096" gradientUnits="userSpaceOnUse">
			<stop stop-color="white" stop-opacity="0.3" />
			<stop offset="1" stop-color="white" stop-opacity="0.9" />
		</linearGradient>
	</defs>
</svg>
